# Blender v3.2.1 OBJ File: 'MAZE.blend'
# www.blender.org
o agent_Cube
v 1.642655 -0.352651 -0.176101
v 1.642655 -0.352651 0.241371
v 0.900112 -0.352651 -0.176101
v 0.900112 -0.352651 0.241371
v 1.642655 0.389890 -0.176101
v 1.642655 0.389890 0.241371
v 0.900112 0.389890 -0.176101
v 0.900112 0.389890 0.241371
vn 0.0000 -1.0000 0.0000
vn -1.0000 0.0000 0.0000
vn 0.0000 1.0000 0.0000
vn 1.0000 0.0000 0.0000
vn 0.0000 0.0000 -1.0000
vn 0.0000 0.0000 1.0000
s off
f 2//1 3//1 1//1
f 4//2 7//2 3//2
f 8//3 5//3 7//3
f 6//4 1//4 5//4
f 7//5 1//5 3//5
f 4//6 6//6 8//6
f 2//1 4//1 3//1
f 4//2 8//2 7//2
f 8//3 6//3 5//3
f 6//4 2//4 1//4
f 7//5 5//5 1//5
f 4//6 2//6 6//6
